<svg width="40" height="40" viewBox="0 0 40 40" xmlns="http://www.w3.org/2000/svg">
    <defs>
        <filter id="shadow" x="-20%" y="-20%" width="140%" height="140%">
            <feDropShadow dx="0" dy="1" stdDeviation="1.2" flood-opacity="0.25"/>
        </filter>
    </defs>
    <g transform="translate(2,2)"
       stroke="#2F2F2F"
       stroke-width="1"
       stroke-linecap="round"
       stroke-linejoin="round"
       fill="none">
        <!-- Root folder -->
        <path d="M10 4 H18 L20 6 H26 V14 H10 Z"
              fill="#FFE08A"
              stroke-width="0.5"
              filter="url(#shadow)"/>
        <!-- Folder text lines -->
        <line x1="12" y1="9" x2="24" y2="9" stroke="#7A6A2A" stroke-width="0.5"/>
        <line x1="12" y1="10.5" x2="22" y2="10.5" stroke="#7A6A2A" stroke-width="0.5"/>
        <line x1="12" y1="12" x2="20" y2="12" stroke="#7A6A2A" stroke-width="0.5"/>
        <!-- Connectors -->
        <line x1="18" y1="14" x2="18" y2="20" stroke="#000" stroke-width="0.5"/>
        <line x1="6" y1="20" x2="32" y2="20" stroke="#000" stroke-width="0.5"/>
        <!-- FILE 1 (Python) -->
        <line x1="7" y1="20" x2="7" y2="22" stroke="#000" stroke-width="0.5"/>
        <g transform="translate(4,22)">
            <path d="M0 0 V8 H6 V3 L4 0 Z"
                  fill="#EAF2FF"
                  stroke-width="0.5"
                  filter="url(#shadow)"/>
            <path d="M6 3 H4 V0" stroke-width="0.3"/>
            <!-- Official Python logo (scaled down) -->
            <g transform="translate(.9,3.5) scale(0.035)">
                <!-- Blue snake -->
                <path fill="#306998" d="M54.9,0c-4.6,0-9.1,0.4-13.4,1.1C30.8,3.1,28.7,7.3,28.7,15v10.2h26.8v3.4H28.7H18.6
c-7.8,0-14.6,4.7-16.75,13.6c-2.46,10.21-2.57,16.59,0,27.25C3.76,77.9,8.31,83.6,16.1,83.6h9.22V71.3
c0-8.85,7.66-16.66,16.75-16.66h26.78c7.45,0,13.41-6.14,13.41-13.62V15c0-7.27-6.13-12.72-13.41-13.94
C64.28,0.33,59.5-0.02,54.9,0z M40.4,8.22c2.77,0,5.03,2.3,5.03,5.12c0,2.82-2.26,5.09-5.03,5.09c-2.78,0-5.03-2.27-5.03-5.09
C35.37,10.52,37.62,8.22,40.4,8.22z"/>
                <!-- Yellow snake -->
                <path fill="#FFD43B" d="M85.64,28.66v11.91c0,9.23-7.83,17-16.75,17H42.1c-7.34,0-13.41,6.28-13.41,13.62v25.53
c0,7.27,6.32,11.54,13.41,13.62c8.49,2.5,16.63,2.95,26.78,0c6.75-1.95,13.41-5.89,13.41-13.62V86.5H55.47v-3.41h26.78h13.41
c7.79,0,10.7-5.44,13.41-13.59c2.8-8.4,2.68-16.48,0-27.25C106.17,34.5,102.49,28.66,94.7,28.66z M70.58,93.31
c2.78,0,5.03,2.28,5.03,5.09c0,2.83-2.25,5.13-5.03,5.13c-2.77,0-5.03-2.3-5.03-5.13C65.55,95.59,67.81,93.31,70.58,93.31z"/>
            </g>
        </g>
        <!-- FILE 2 — JavaScript -->
        <line x1="18" y1="20" x2="18" y2="22" stroke="#000" stroke-width="0.5"/>
        <g transform="translate(16,22)">
            <path d="M0 0 V8 H6 V3 L4 0 Z"
                  fill="#EAF2FF"
                  stroke-width="0.5"
                  filter="url(#shadow)"/>
            <path d="M6 3 H4 V0" stroke-width="0.3"/>
            <!-- Official JS logo -->
            <g transform="translate(0.7,3.4) scale(0.032)">
                <path fill="#F0DB4F" d="M1.408 1.408h125.184v125.185H1.408z"/>
                <path fill="#323330" d="M116.347 96.736c-.917-5.711-4.641-10.508-15.672-14.981-3.832-1.761-8.104-3.022-9.377-5.926-.452-1.69-.512-2.642-.226-3.665.821-3.32 4.784-4.355 7.925-3.403 2.023.678 3.938 2.237 5.093 4.724 5.402-3.498 5.391-3.475 9.163-5.879-1.381-2.141-2.118-3.129-3.022-4.045-3.249-3.629-7.676-5.498-14.756-5.355l-3.688.477c-3.534.893-6.902 2.748-8.877 5.235-5.926 6.724-4.236 18.492 2.975 23.335 7.104 5.332 17.54 6.545 18.873 11.531 1.297 6.104-4.486 8.08-10.234 7.378-4.236-.881-6.592-3.034-9.139-6.949-4.688 2.713-4.688 2.713-9.508 5.485 1.143 2.499 2.344 3.63 4.26 5.795 9.068 9.198 31.76 8.746 35.83-5.176.165-.478 1.261-3.666.38-8.581zM69.462 58.943H57.753l-.048 30.272c0 6.438.333 12.34-.714 14.149-1.713 3.558-6.152 3.117-8.175 2.427-2.059-1.012-3.106-2.451-4.319-4.485-.333-.584-.583-1.036-.667-1.071l-9.52 5.83c1.583 3.249 3.915 6.069 6.902 7.901 4.462 2.678 10.459 3.499 16.731 2.059 4.082-1.189 7.604-3.652 9.448-7.401 2.666-4.915 2.094-10.864 2.07-17.444.06-10.735.001-21.468.001-32.237z"/>
            </g>
        </g>
        <!-- FILE 3 — C -->
        <line x1="31" y1="20" x2="31" y2="22" stroke="#000" stroke-width="0.5"/>
        <g transform="translate(28,22)">
            <path d="M0 0 V8 H6 V3 L4 0 Z"
                  stroke-width="0.5"
                  fill="#EAF2FF"
                  filter="url(#shadow)"/>
            <path d="M6 3 H4 V0" stroke-width="0.3"/>
            <!-- Official C logo (scaled) -->
            <g transform="translate(0.6,3.1) scale(0.035)">
                <path fill="#659AD3" d="M115.4 30.7L67.1 2.9c-.8-.5-1.9-.7-3.1-.7-1.2 0-2.3.3-3.1.7l-48 27.9c-1.7 1-2.9 3.5-2.9 5.4v55.7c0 1.1.2 2.4 1 3.5l106.8-62c-.6-1.2-1.5-2.1-2.4-2.7z"/>
                <path fill="#03599C" d="M10.7 95.3c.5.8 1.2 1.5 1.9 1.9l48.2 27.9c.8.5 1.9.7 3.1.7 1.2 0 2.3-.3 3.1-.7l48-27.9c1.7-1 2.9-3.5 2.9-5.4V36.1c0-.9-.1-1.9-.6-2.8l-106.6 62z"/>
                <path fill="#fff" d="M85.3 76.1C81.1 83.5 73.1 88.5 64 88.5c-13.5 0-24.5-11-24.5-24.5s11-24.5 24.5-24.5c9.1 0 17.1 5 21.3 12.5l13-7.5c-6.8-11.9-19.6-20-34.3-20-21.8 0-39.5 17.7-39.5 39.5s17.7 39.5 39.5 39.5c14.6 0 27.4-8 34.2-19.8l-12.9-7.6z"/>
            </g>
        </g>

    </g>
</svg>